<svg xmlns="http://www.w3.org/2000/svg" width="512" height="512" viewBox="0 0 512 512" version="1.1">
	<path d="M 241.401 2.889 C 238.047 3.849, 232.647 6.083, 229.401 7.854 C 210.727 18.041, 204.811 19.047, 190.269 14.514 C 183.441 12.385, 180.504 11.941, 176.638 12.454 C 165.193 13.972, 156.412 22.428, 154.532 33.741 C 153.894 37.580, 154.112 38.266, 156.837 40.991 C 158.492 42.646, 160.720 44, 161.788 44 C 164.950 44, 168.876 40.175, 170 36 C 171.211 31.503, 175.114 27.994, 178.885 28.013 C 180.323 28.020, 184.393 28.933, 187.929 30.041 C 203.467 34.911, 216.186 33.181, 232.017 24.045 C 249.207 14.123, 262.713 13.951, 278.910 23.447 C 290.936 30.497, 296.854 32.292, 308 32.268 C 314.901 32.253, 319.278 31.669, 324 30.136 C 333.218 27.143, 336.257 27.329, 339.411 31.077 C 340.944 32.899, 342 35.384, 342 37.170 C 342 39.081, 337.023 49.868, 328.424 66.593 L 314.848 93 255.989 93 L 197.131 93 189.534 78.003 C 181.548 62.236, 179.016 59.277, 174.482 60.415 C 170.949 61.302, 168 64.532, 168 67.515 C 168 68.899, 170.688 75.393, 173.973 81.947 L 179.947 93.863 176.619 94.961 C 167.711 97.901, 160.667 108.096, 160.667 118.051 C 160.667 124.929, 162.174 129.051, 166.806 134.838 L 170.278 139.176 162.770 146.838 C 152.790 157.023, 148.906 162.570, 138.582 181.379 C 114.893 224.538, 97.797 247.701, 63.955 282.492 C 35.201 312.051, 22.397 331.349, 11.397 361.704 C 1.570 388.824, -2.574 423.428, 1.567 443.792 C 4.577 458.594, 12.414 473.801, 22.888 485.165 C 30.738 493.682, 39.211 499.827, 50.156 504.940 C 66.612 512.627, 49.214 512.056, 258.194 511.763 L 445.500 511.500 452 509.110 C 464.675 504.449, 471.675 500.371, 472.866 496.955 C 475.057 490.669, 469.235 485.205, 463.074 487.763 C 461.658 488.351, 457.772 489.979, 454.439 491.380 C 438.775 497.963, 454.505 497.437, 263 497.781 C 148.126 497.987, 86.225 497.742, 79.808 497.057 C 48.405 493.702, 23.327 471.448, 16.923 441.254 C 14.177 428.305, 16.297 401.121, 21.592 381.391 C 30.673 347.554, 44.063 325.345, 73.980 294.496 C 110.254 257.093, 127.975 233.224, 152.055 189.339 C 163.720 168.080, 171.491 158.169, 184.174 148.380 L 189.848 144 256.040 144 L 322.232 144 326.944 147.459 C 333.277 152.108, 345.661 165.219, 350.123 172 C 352.114 175.025, 356.907 183.376, 360.776 190.557 C 382.368 230.644, 402.452 257.788, 436.434 292.817 C 459.340 316.428, 467.666 327.418, 477.544 347.088 C 491.159 374.196, 498.657 410.004, 495.899 434.745 C 494.772 444.850, 493.177 449.862, 487.332 461.651 C 483.102 470.184, 482.887 470.992, 484.150 473.627 C 485.821 477.114, 489.959 478.752, 493.738 477.423 C 498.937 475.595, 507.916 457.361, 510.212 443.968 C 510.869 440.135, 511.766 437, 512.204 437 C 512.642 437, 513 430.673, 513 422.941 C 513 415.209, 512.613 409.121, 512.140 409.414 C 511.666 409.706, 510.997 407.241, 510.651 403.936 C 508.042 378.974, 497.428 348.482, 483.453 325.801 C 474.686 311.572, 466.084 301.003, 449.023 283.500 C 414.751 248.339, 396.934 224.354, 373.998 182.500 C 363.030 162.486, 359.302 157.117, 349.230 146.838 L 341.722 139.176 345.194 134.838 C 349.826 129.051, 351.333 124.929, 351.333 118.051 C 351.333 108.075, 344.289 97.901, 335.336 94.946 L 331.963 93.833 344.731 68.819 C 357.351 44.099, 357.500 43.728, 357.466 37.153 C 357.429 29.759, 355.763 25.613, 350.638 20.162 C 343.076 12.119, 334.398 10.422, 321.628 14.488 C 307.031 19.136, 301.468 18.122, 281.038 7.087 C 269.858 1.048, 253.778 -0.655, 241.401 2.889 M 170.174 219.314 C 168.264 221.348, 168 222.757, 168 230.931 C 168 240.099, 167.968 240.224, 165.750 239.599 C 150.970 235.432, 132.159 240.332, 123.004 250.733 C 108.032 267.742, 118.793 291.626, 143.799 296.885 C 167.533 301.877, 191.055 287.503, 190.978 268.054 C 190.951 261.240, 188.532 255.617, 183.084 249.707 C 179.056 245.337, 179.036 245.277, 181.008 243.492 C 182.749 241.918, 183 240.406, 183 231.519 C 183 222.181, 182.811 221.171, 180.686 219.174 C 177.611 216.286, 172.961 216.348, 170.174 219.314 M 331.174 219.314 C 329.250 221.363, 329 222.745, 329 231.350 C 329 240.126, 329.219 241.281, 331.250 243.229 L 333.500 245.387 328.897 250.037 C 311.667 267.447, 323.686 292.351, 351.631 297.143 C 370.170 300.322, 390.157 290.313, 394.505 275.672 C 396.381 269.355, 396.381 266.645, 394.505 260.328 C 390.499 246.838, 372.319 236.612, 355.505 238.392 C 352.202 238.742, 348.262 239.299, 346.750 239.630 L 344 240.233 344 230.689 C 344 221.570, 343.883 221.053, 341.365 219.073 C 337.891 216.340, 333.879 216.435, 331.174 219.314 M 229.455 233.455 C 228.105 234.805, 227 237.053, 227 238.452 C 227 242.262, 233.280 248.520, 240.837 252.240 C 246.744 255.149, 248.378 255.500, 256 255.500 C 263.622 255.500, 265.256 255.149, 271.163 252.240 C 278.720 248.520, 285 242.262, 285 238.452 C 285 235.099, 280.813 231, 277.388 231 C 275.739 231, 272.537 232.657, 269.176 235.250 C 263.795 239.401, 263.489 239.500, 256 239.500 C 248.511 239.500, 248.205 239.401, 242.824 235.250 C 236.441 230.326, 233.040 229.869, 229.455 233.455 M 250.073 341.635 C 248.708 343.370, 248 345.734, 248 348.557 C 248 352.552, 247.766 352.922, 244.580 353.973 C 242.699 354.594, 239.359 357.057, 237.156 359.446 C 228.934 368.367, 229.002 380.062, 237.325 388.371 C 240.811 391.851, 243.068 393.010, 251 395.392 C 262.426 398.825, 265 400.291, 265 403.368 C 265 407.901, 262.516 408.780, 248.663 409.154 C 235.905 409.498, 235.811 409.518, 233.321 412.413 C 231.376 414.675, 230.948 416.017, 231.411 418.413 C 232.331 423.186, 235.278 425, 242.111 425 L 248 425 248 428.550 C 248 433.315, 250.481 437.832, 253.518 438.594 C 259.585 440.117, 264 435.875, 264 428.525 C 264 425.547, 264.458 424.776, 266.746 423.907 C 274.550 420.939, 280.993 411.695, 280.968 403.500 C 280.953 398.365, 278.197 392.371, 273.956 388.245 C 271.413 385.771, 267.920 384.150, 259.411 381.493 C 252.569 379.358, 247.977 377.383, 247.607 376.417 C 246.570 373.715, 246.926 372.074, 249 370 C 250.783 368.217, 252.333 368, 263.311 368 C 274.170 368, 275.872 367.768, 277.733 366.034 C 280.638 363.328, 281.394 360.365, 280.023 357.056 C 278.557 353.515, 275.238 352, 268.953 352 L 264 352 264 348.135 C 264 342.509, 260.927 339, 256 339 C 253.027 339, 251.671 339.602, 250.073 341.635 M 193.199 400.300 C 187.590 405.929, 183 410.847, 183 411.230 C 183 413.033, 187.247 423, 188.015 423 C 188.494 423, 193.443 418.560, 199.012 413.133 L 209.137 403.266 206.464 396.883 C 204.993 393.372, 203.702 390.402, 203.594 390.283 C 203.487 390.163, 198.809 394.671, 193.199 400.300 M 0.397 424 C 0.397 431.975, 0.553 435.238, 0.743 431.250 C 0.932 427.262, 0.932 420.738, 0.743 416.750 C 0.553 412.762, 0.397 416.025, 0.397 424 M 230.637 452.861 L 224.841 458.719 228.670 460.238 C 236.958 463.524, 238.608 463.459, 242.372 459.695 L 245.820 456.247 241.127 451.625 L 236.434 447.003 230.637 452.861" stroke="none" fill="black" fill-rule="evenodd"/>
</svg>